<svg width="501.008" height="501.008" xmlns="http://www.w3.org/2000/svg"><path fill="none" d="M-1-1h802v602H-1z"/><g><path fill="#0f4c81" d="M5.504 256c0-135.309 109.69-245 244.999-245 135.005 0 245.038 110.064 245.001 245.069-.026 92.994-51.862 173.878-128.212 215.357-4.678 2.541-10.284 2.807-15.127.596C321.198 457.88 286.771 450 250.504 450c-36.345 0-70.841 7.914-101.86 22.113a16.338 16.338 0 01-14.551-.482C57.517 430.203 5.504 349.176 5.504 256z"/><path fill="#658dc6" d="M244.504 275c0 8.284-6.716 15-15 15h-170c-8.284 0-15-6.716-15-15s6.716-15 15-15h10c8.284 0 15-6.716 15-15s-6.716-15-15-15H6.867a244.18 244.18 0 015.066-30h117.571c8.284 0 15 6.716 15 15s-6.716 15-15 15h-20c-8.284 0-15 6.716-15 15s6.716 15 15 15h120c8.284 0 15 6.716 15 15zm-155-135h120c8.284 0 15-6.716 15-15s-6.716-15-15-15h-120c-8.284 0-15 6.716-15 15s6.715 15 15 15zm100-40h70c8.284 0 15-6.716 15-15s-6.716-15-15-15h-70c-8.284 0-15 6.716-15 15s6.715 15 15 15zm-20 280h-70c-8.284 0-15 6.716-15 15s6.716 15 15 15h70c8.284 0 15-6.716 15-15s-6.716-15-15-15zm230-20h-70c-8.284 0-15 6.716-15 15s6.716 15 15 15h70c8.284 0 15-6.716 15-15s-6.716-15-15-15zm-20-70c-8.284 0-15 6.716-15 15s6.716 15 15 15H487.06a243.769 243.769 0 006.103-30H379.504zm15-75c0-8.284-6.716-15-15-15h-5c-8.284 0-15-6.716-15-15s6.716-15 15-15h65c8.284 0 15-6.716 15-15s-6.716-15-15-15h-120c-8.284 0-15 6.716-15 15s6.716 15 15 15h15c8.284 0 15 6.716 15 15s-6.716 15-15 15h-75c-8.284 0-15 6.716-15 15s6.716 15 15 15h120c8.284 0 15-6.716 15-15z"/><path fill="#ea552d" d="M346.504 361.488v65.034c0 10.758-8.721 19.478-19.478 19.478H173.982c-10.758 0-19.478-8.721-19.478-19.478v-65.034c0-46.661 37.826-84.488 84.488-84.488h23.025c46.66 0 84.487 37.826 84.487 84.488z"/><path fill="#f76937" d="M346.504 361.476v18.098c-12.903 1.543-26.562.632-40.486-3.234-34.586-9.603-61.047-37.789-68.897-72.814-2.023-9.026-2.835-17.852-2.567-26.412a85.468 85.468 0 014.426-.114h23.049c46.654 0 84.475 37.821 84.475 84.476z"/><path fill="#ff956a" d="M340.519 390h-183.03c-11.037 0-19.985-8.948-19.985-19.985v-10.03c0-11.037 8.948-19.985 19.985-19.985h183.03c11.037 0 19.985 8.948 19.985 19.985v10.03c0 11.037-8.948 19.985-19.985 19.985z"/><path fill="#ffc14f" d="M133.504 406h234v65.337c-34.769 18.921-74.628 29.671-117 29.671s-82.231-10.75-117-29.671V406z"/><path fill="#ffb52d" d="M164.504 485.488a244.286 244.286 0 01-31-14.151V406h31v79.488z"/><path fill="#ffc14f" d="M258.504 177.387v81.227a7.387 7.387 0 01-7.387 7.387h-4.227a7.387 7.387 0 01-7.387-7.387v-81.227A7.387 7.387 0 01246.89 170h4.227a7.387 7.387 0 017.387 7.387z"/><path fill="#ffcd71" d="M343.829 181.426c-43.285 43.285-113.58 43.097-156.631-.562-41.584-42.172-42.294-110.367-1.547-153.348C197.464 15.055 211.445 5.971 226.418.264c3.479-1.326 6.621 2.623 4.511 5.691-25.494 37.059-21.766 88.165 11.184 121.115s84.058 36.678 121.116 11.183c3.074-2.115 7.014 1.038 5.685 4.524-5.372 14.088-13.734 27.297-25.085 38.649zm-67.333 83.383c0 14.355-11.637 25.992-25.993 25.992-14.355 0-25.993-11.637-25.993-25.992s11.637-25.993 25.993-25.993c14.356.001 25.993 11.638 25.993 25.993z"/><path fill="#ffe7c0" d="M343.96 65.001l14.92 8.16c1.387.759 1.387 2.751 0 3.509l-14.92 8.16a2 2 0 00-.795.795l-8.16 14.92c-.759 1.387-2.751 1.387-3.509 0l-8.16-14.92a2 2 0 00-.795-.795l-14.92-8.16c-1.387-.759-1.387-2.751 0-3.509l14.92-8.16c.336-.184.612-.459.795-.795l8.16-14.92c.759-1.387 2.751-1.387 3.509 0l8.16 14.92a2 2 0 00.795.795z"/><path fill="#ffd993" d="M276.496 264.809a26.04 26.04 0 01-.991 7.135 26.002 26.002 0 01-7.135.992c-14.355 0-25.993-11.637-25.993-25.992 0-2.474.346-4.868.992-7.135a26.002 26.002 0 017.135-.992c14.355 0 25.992 11.637 25.992 25.992zm80.057-98.602a109.52 109.52 0 0012.36-23.43c1.329-3.486-2.611-6.639-5.685-4.524-37.059 25.495-88.166 21.768-121.116-11.183-32.95-32.95-36.678-84.056-11.184-121.115 2.11-3.068-1.031-7.017-4.511-5.691a109.583 109.583 0 00-27.428 15.265c-29.638 42.804-25.447 102.188 12.142 140.309 39.508 40.065 101.957 43.521 145.422 10.369z"/><path fill="#ffcd71" d="M354.504 360h21c5.523 0 10 4.477 10 10v50c0 5.523-4.477 10-10 10h-250c-5.523 0-10-4.477-10-10v-50c0-5.523 4.477-10 10-10h21a5 5 0 015 5v10a5 5 0 005 5h13a5 5 0 005-5v-10a5 5 0 015-5h25a5 5 0 015 5v10a5 5 0 005 5h13a5 5 0 005-5v-10a5 5 0 015-5h26a5 5 0 015 5v10a5 5 0 005 5h13a5 5 0 005-5v-10a5 5 0 015-5h25a5 5 0 015 5v10a5 5 0 005 5h13a5 5 0 005-5v-10a5 5 0 015-5z"/><path fill="#ffd993" d="M385.504 370v50c0 5.523-4.477 10-10 10h-211v-50h4a5 5 0 005-5v-10a5 5 0 015-5h26a5 5 0 015 5v10a5 5 0 005 5h13a5 5 0 005-5v-10a5 5 0 015-5h26a5 5 0 015 5v10a5 5 0 005 5h13a5 5 0 005-5v-10a5 5 0 015-5h26a5 5 0 015 5v10a5 5 0 005 5h12a5 5 0 005-5v-10a5 5 0 015-5h21c5.523 0 10 4.477 10 10z"/><path fill="#ffcd71" d="M341.504 455v28.743C313.506 494.878 282.97 501 251.004 501s-62.502-6.122-90.5-17.257V455a5 5 0 015-5h171a5 5 0 015 5z"/><g fill="#f29500"><path d="M202.506 472.287a2 2 0 010 2.828l-9.779 9.779a2 2 0 01-2.828 0l-9.779-9.779a2 2 0 010-2.828l9.779-9.779a2 2 0 012.828 0l9.779 9.779zm28.097-9.78a2 2 0 00-2.828 0l-9.779 9.779a2 2 0 000 2.828l9.779 9.779a2 2 0 002.828 0l9.779-9.779a2 2 0 000-2.828l-9.779-9.779zm35.66 0a2 2 0 00-2.828 0l-9.779 9.779a2 2 0 000 2.828l9.779 9.779a2 2 0 002.828 0l9.779-9.779a2 2 0 000-2.828l-9.779-9.779zm47.655 9.78l-9.779-9.779a2 2 0 00-2.828 0l-9.779 9.779a2 2 0 000 2.828l9.779 9.779a2 2 0 002.828 0l9.779-9.779a2 2 0 000-2.828zM100.478 326.806a2 2 0 010 2.828l-9.779 9.779a2 2 0 01-2.828 0l-9.779-9.779a2 2 0 010-2.828l9.779-9.779a2 2 0 012.828 0l9.779 9.779zM81.251 175.697l-9.779-9.779a2 2 0 00-2.828 0l-9.779 9.779a2 2 0 000 2.828l9.779 9.779a2 2 0 002.828 0l9.779-9.779a2 2 0 000-2.828zm322.667 74.118l-9.78-9.779a2 2 0 00-2.828 0l-9.779 9.779a2 2 0 000 2.828l9.779 9.779a2 2 0 002.828 0l9.78-9.779a2 2 0 000-2.828z"/></g><text font-family="Helvetica, Arial, sans-serif" font-size="100" y="285.304" x="11.515" stroke-width="0" fill="#2a2a35">salahtimes</text></g></svg>