<svg width="600" height="600" xmlns="http://www.w3.org/2000/svg"><path fill="none" d="M-1-1h602v602H-1z"/><g><ellipse stroke="null" ry="285.07" rx="288.542" cy="298.913" cx="300.694" stroke-opacity="null" stroke-width="null" fill="#0f4c81"/><path stroke="null" fill-opacity="null" stroke-opacity="null" stroke-width="null" fill="#f3d5ad" d="M279.047 443.608l31.964-50.448 79.186 50.172-31.965 50.448z"/><path stroke="null" stroke-opacity="null" stroke-width="null" fill="#f3d5ad" d="M241.513 448.593l203.006-12.852 4.168 65.84-203.006 12.852z"/><path stroke="null" stroke-opacity="null" stroke-width="null" fill="#f3d5ad" d="M190.625 370.14h115.278v78.472H190.625z"/><ellipse stroke="null" ry="25" rx="22.917" cy="473.612" cx="214.236" stroke-opacity="null" stroke-width="null" fill="#a58d7f"/><ellipse stroke="null" ry="20.139" rx="27.778" cy="420.14" cx="403.125" stroke-opacity="null" stroke-width="null" fill="#a58d7f"/><path fill-opacity="null" stroke-opacity="null" stroke-width="null" stroke="null" fill="#b5c7d3" d="M192.014 221.528h29.167v32.639h-29.167z"/><path stroke="null" fill-opacity="null" stroke-opacity="null" stroke-width="null" fill="#b5c7d3" d="M197.366 207.693l42.076-19.687 58.172 124.323-42.076 19.688z"/><path stroke="null" stroke-opacity="null" stroke-width="null" fill="#b5c7d3" d="M178.125 246.528h90.278v123.611h-90.278z"/><path stroke="null" stroke-opacity="null" stroke-width="null" fill="#b5c7d3" d="M214.773 294.346l30.78-30.782 133.37 133.364-30.78 30.782z"/><ellipse stroke="null" ry="42.361" rx="43.403" cy="152.778" cx="251.389" stroke-opacity="null" stroke-width="null" fill="#a58d7f"/><path stroke="null" stroke-opacity="null" stroke-width="null" fill="#84898c" d="M203.083 113.62l73.492-33.748 11.812 25.725-73.491 33.747z"/><g stroke="null"><path d="M850.446 2698.858c-.027-.04-.045-.081-.072-.12l-19.328-27a7.505 7.505 0 00-3.482-2.662l-33.083-12.316c-53.456-43.167-70.572-84.077-80.235-118.436-2.605-9.264-7.074-16.558-12.477-22.263l-.021-7.615a1.172 1.172 0 01.498-1.003 1.175 1.175 0 011.107-.185l11.373 3.606a7.5 7.5 0 009.105-4.07c16.97-37.685 1.646-85.041.985-87.04a7.502 7.502 0 00-5.878-5.04c-42.771-7.194-74.93 22.563-76.276 23.833a7.5 7.5 0 00-1.711 8.502l15.824 35.645v15.074a7.49 7.49 0 00-4.654 3.05c-1.662 2.386-40.28 59.303-19.441 154.639-.73 6.893-2.567 36.382 16.412 53.622-2.362 2.023-5.513 3.686-10.333 4.68-15.398 3.178-22.995 14.518-20.321 30.335 1.42 8.408 8.657 14.51 17.206 14.51h4.63c4.144 0 7.5-3.358 7.5-7.5s-3.356-7.5-7.5-7.5h-4.63a2.436 2.436 0 01-2.293-1.564c.104-.293.197-.592.265-.902.777-.292 3.285-.87 9.73.104 6.055.915 13.14 2.807 19.993 4.637 2.873.767 5.666 1.512 8.32 2.169l-2.408 6.423a7.502 7.502 0 007.022 10.133c21.742 0 58.94-.633 92.223-2.418 63.767-3.42 71.074-8.746 74.194-11.021 21.96-16.004 14.802-41.031 7.948-52.028-.058-.096-.128-.185-.192-.28zm-24.105-7.922l-5.092-1.261a22.499 22.499 0 00-7.35-.58l-4.491.385-20.347-8.138 4.989-8.736 26.132 9.728 6.159 8.602zm-113.776-196.492l-4.68-1.483a16.27 16.27 0 00-14.566 2.427 16.292 16.292 0 00-6.216 9.673c-5.152-2.71-10.423-4.556-15.328-5.731v-18.225a7.49 7.49 0 00-.646-3.043l-1.715-3.863c2.607-2.37 20.036-17.372 46.725-21.257 1.23 12.616 1.027 27.694-3.574 41.502zm-.72-65.543a150.534 150.534 0 012.105 9.2c-25.133 3.653-42.987 15.57-50.874 21.82l-6.107-13.757c8.437-6.41 29.322-19.698 54.876-17.263zm-63.415 118.675c4.704-17.275 10.704-29.138 13.852-34.657 9.092 1.119 30.986 6.225 37.523 29.467 10.058 35.762 27.64 78.155 81.23 122.762l-5.926 10.376c-16.604-7.911-65.305-35.217-98.241-95.993a7.498 7.498 0 00-10.167-3.02 7.5 7.5 0 00-3.021 10.167c10.529 19.429 22.479 35.617 34.553 48.996-23.05.127-41.974 5.433-52.42 9.14-8.002-42.567-3.136-76.108 2.617-97.238zm18.78 183.81c-6.727-1.796-13.304-3.551-19.372-4.627 11.019-3.927 15.795-10.978 19.102-15.887.91-1.353 2.288-3.397 2.86-3.712 1.437-.207 7.196 5.785 11.207 15.968l-4.04 10.773c-2.99-.707-6.313-1.594-9.756-2.514zm166.663 7.647c-1.251.844-10.35 5.205-66.692 8.203-27.832 1.48-58.371 2.153-80.065 2.324l12.682-33.818c8.494-1.225 32.38-3.486 80.128-.154a7.49 7.49 0 008.004-6.96 7.5 7.5 0 00-6.96-8.004c-64.955-4.532-87.606.976-88.538 1.212a7.489 7.489 0 00-4.232 2.888c-6.192-9.253-13.068-13.445-20.448-12.423-4.16.573-7.057 2.594-9.307 4.996-10.958-10.736-11.466-28.926-11.077-37.03 9.518-3.692 35.604-12.21 66.49-8.783 31.144 28.772 59.334 39.726 61.719 40.62l29.914 11.966a7.503 7.503 0 003.426.509l6.265-.537a7.518 7.518 0 012.46.194l21.618 5.354c2.827 5.875 7.625 19.96-5.387 29.443z" transform="matrix(1.29408 0 0 1.2881 -644.607 -3035.04)"/><path d="M893.642 2425.41c-43.724-43.725-101.86-67.805-163.695-67.805s-119.971 24.08-163.695 67.805-67.805 101.859-67.805 163.695 24.08 119.97 67.805 163.695 101.859 67.805 163.695 67.805 119.97-24.08 163.695-67.805 67.805-101.86 67.805-163.695-24.08-119.971-67.805-163.695zm-10.606 316.784c-40.892 40.89-95.26 63.41-153.09 63.41s-112.196-22.52-153.088-63.41c-40.891-40.892-63.411-95.26-63.411-153.09s22.52-112.196 63.41-153.088c40.893-40.891 95.26-63.411 153.09-63.411s112.197 22.52 153.089 63.41c40.89 40.893 63.41 95.26 63.41 153.09s-22.52 112.197-63.41 153.089z" transform="matrix(1.29408 0 0 1.2881 -644.607 -3035.04)"/></g><text font-weight="bold" font-family="Lato" font-size="120" y="346.299" x="25.312" stroke-width="2" stroke="#373838" fill="#f1eee6">salahtimes</text></g></svg>