<svg xmlns="http://www.w3.org/2000/svg" width="1400" height="980">
  <path d="M-62.344-11.825h802v602h-802v-602z" fill="none"/>
  <g stroke="null">
    <path stroke-opacity="null" stroke-width="null" fill="#0f4c81" d="M1111.074 475.765a471.284 465.613 0 01-471.285 465.614 471.284 465.613 0 01-471.285-465.614A471.284 465.613 0 01639.789 10.152a471.284 465.613 0 01471.285 465.613z"/>
    <path fill-opacity="null" stroke-opacity="null" stroke-width="null" fill="#f3d5ad" d="M604.432 713.733l52.208-82.398 129.336 81.947-52.21 82.399-129.334-81.948z"/>
    <path stroke-opacity="null" stroke-width="null" fill="#f3d5ad" d="M543.126 721.875l331.578-20.993 6.808 107.539-331.575 20.993-6.81-107.54h-.001z"/>
    <path stroke-opacity="null" stroke-width="null" fill="#f3d5ad" d="M460.01 593.735h188.286v128.17H460.01v-128.17z"/>
    <path stroke-opacity="null" stroke-width="null" fill="#a58d7f" d="M536.006 762.74a37.431 40.833 0 01-37.432 40.833 37.431 40.833 0 01-37.43-40.833 37.431 40.833 0 0137.43-40.834 37.431 40.833 0 0137.43 40.834zm316.457-87.338a45.37 32.894 0 01-45.37 32.894 45.37 32.894 0 01-45.371-32.895 45.37 32.894 0 0145.37-32.892 45.37 32.894 0 0145.37 32.893z"/>
    <path fill-opacity="null" stroke-opacity="null" stroke-width="null" fill="#b5c7d3" d="M462.278 351.003h47.638v53.312h-47.638v-53.312z"/>
    <path fill-opacity="null" stroke-opacity="null" stroke-width="null" fill="#b5c7d3" d="M471.02 328.408l68.724-32.157 95.014 203.06-68.724 32.157-95.014-203.06z"/>
    <path stroke-opacity="null" stroke-width="null" fill="#b5c7d3" d="M439.593 391.837h147.453v201.898H439.593v-201.9z"/>
    <path stroke-opacity="null" stroke-width="null" fill="#b5c7d3" d="M499.45 469.939l50.273-50.277L767.56 637.489l-50.274 50.276L499.45 469.939z"/>
    <path stroke-opacity="null" stroke-width="null" fill="#a58d7f" d="M630.149 238.712a70.891 69.19 0 01-70.892 69.19 70.891 69.19 0 01-70.891-69.19 70.891 69.19 0 0170.89-69.19 70.891 69.19 0 0170.893 69.19z"/>
    <path stroke-opacity="null" stroke-width="null" fill="#84898c" d="M480.356 174.754l120.037-55.122 19.294 42.016L499.65 216.77l-19.294-42.016z"/>
    <path d="M893.353 710.06c-.057-.084-.095-.17-.152-.253l-40.853-56.805a15.863 15.79 0 00-7.36-5.6l-69.925-25.912c-112.988-90.82-149.167-176.89-169.59-249.175-5.506-19.49-14.952-34.837-26.372-46.84l-.044-16.02a2.477 2.466 0 011.052-2.11 2.484 2.472 0 012.34-.39l24.039 7.587a15.852 15.78 0 0019.244-8.563c35.87-79.285 3.48-178.917 2.082-183.123a15.857 15.783 0 00-12.424-10.604c-90.403-15.135-158.376 47.47-161.221 50.143a15.852 15.78 0 00-3.617 17.887l33.447 74.993v31.714a15.831 15.758 0 00-9.837 6.417c-3.513 5.02-85.138 124.767-41.092 325.344-1.543 14.502-5.426 76.544 34.69 112.815-4.993 4.256-11.653 7.755-21.84 9.846-32.547 6.686-48.604 30.544-42.952 63.822 3 17.69 18.297 30.527 36.367 30.527h9.786c8.76 0 15.853-7.065 15.853-15.78s-7.094-15.778-15.853-15.778h-9.786a5.149 5.125 0 01-4.846-3.29c.22-.617.416-1.246.56-1.9 1.642-.613 6.943-1.83 20.566.22 12.798 1.925 27.773 5.906 42.258 9.756 6.072 1.614 11.976 3.18 17.586 4.563l-5.09 13.514a15.857 15.783 0 0014.842 21.318c45.955 0 124.58-1.331 194.928-5.087 134.782-7.195 150.226-18.4 156.82-23.187 46.417-33.67 31.287-86.325 16.8-109.461-.122-.202-.27-.39-.406-.59v.003zm-50.95-16.67l-10.762-2.652a47.555 47.335 0 00-15.535-1.22l-9.493.81-43.007-17.122 10.546-18.38 55.234 20.467 13.018 18.098zM601.92 279.994l-9.892-3.12a34.39 34.23 0 00-30.788 5.106 34.436 34.277 0 00-13.138 20.35c-10.89-5.7-22.03-9.585-32.398-12.057V251.93a15.831 15.758 0 00-1.366-6.402l-3.625-8.128c5.51-4.986 42.35-36.548 98.76-44.722 2.6 26.543 2.17 58.265-7.553 87.316zm-1.522-137.896a318.178 316.707 0 014.45 19.356c-53.123 7.686-90.86 32.758-107.53 45.907l-12.91-28.943c17.834-13.486 61.978-41.443 115.99-36.32zM466.36 391.778c9.943-36.345 22.625-61.303 29.279-72.915 19.217 2.354 65.494 13.097 79.31 61.996 21.26 75.239 58.422 164.43 171.693 258.278l-12.525 21.83c-35.096-16.644-138.033-74.093-207.648-201.96a15.848 15.775 0 00-21.49-6.353 15.852 15.78 0 00-6.385 21.39c22.254 40.877 47.513 74.934 73.033 103.082-48.72.268-88.72 11.43-110.798 19.23-16.914-89.556-6.628-160.123 5.53-204.578zm39.695 386.715c-14.22-3.778-28.12-7.47-40.946-9.735 23.29-8.262 33.385-23.096 40.375-33.424 1.924-2.847 4.836-7.147 6.045-7.81 3.038-.435 15.21 12.17 23.688 33.595l-8.54 22.665c-6.32-1.487-13.343-3.353-20.62-5.29l-.002-.001zm352.269 16.089c-2.644 1.775-21.877 10.95-140.964 17.258-58.828 3.114-123.377 4.53-169.23 4.89l26.805-71.15c17.953-2.577 68.44-7.334 169.363-.324a15.831 15.758 0 0016.918-14.643 15.852 15.78 0 00-14.711-16.84c-137.293-9.535-185.17 2.054-187.14 2.55a15.83 15.756 0 00-8.944 6.076c-13.088-19.467-27.622-28.287-43.22-26.136-8.793 1.205-14.917 5.457-19.672 10.51-23.162-22.587-24.236-60.857-23.413-77.907 20.118-7.767 75.254-25.688 140.537-18.478 65.828 60.533 125.412 83.58 130.453 85.46l63.228 25.175a15.859 15.786 0 007.24 1.07l13.243-1.13a15.89 15.817 0 015.2.41l45.693 11.264c5.975 12.36 16.117 41.993-11.386 61.945z" stroke-width="1.633"/>
    <path d="M984.656 134.755C892.236 42.762 769.356-7.9 638.659-7.9S385.082 42.762 292.664 134.755s-143.317 214.3-143.317 344.396 50.897 252.404 143.317 344.397S507.959 966.202 638.66 966.202s253.575-50.661 345.995-142.654 143.317-214.302 143.317-344.397-50.897-252.406-143.317-344.396zm-22.418 666.48c-86.432 86.027-201.348 133.407-323.58 133.407s-237.145-47.38-323.576-133.408c-86.43-86.032-134.03-200.417-134.03-322.085s47.6-236.048 134.027-322.08c86.434-86.03 201.348-133.41 323.58-133.41s237.147 47.38 323.579 133.407c86.427 86.035 134.027 200.417 134.027 322.085s-47.6 236.05-134.027 322.083z" stroke-width="1.633"/>
  </g>
  <path d="M254.916 501.361c0 1.698-.07 3.185-.21 4.463a28.761 28.761 0 01-.642 3.609c2.834-1.698 5.6-3.47 8.294-5.315 2.695-1.838 5.031-3.61 7.01-5.316h8.936a114.798 114.798 0 01-14.56 14.142c-5.317 4.326-11.308 8.471-17.975 12.435-3.824 4.113-8.715 7.269-14.673 9.47-5.95 2.191-12.184 3.287-18.703 3.287-9.502 0-17.05-2.587-22.646-7.763-5.596-5.167-8.393-11.648-8.393-19.444 0-4.4 1.063-8.406 3.19-12.016 2.125-3.617 4.816-6.205 8.071-7.763 4.82-8.644 9.32-17.895 13.5-27.751 4.185-9.848 8.404-21.575 12.657-35.18l31.46-4.253c.428 10.63.927 20.339 1.495 29.124a1683.55 1683.55 0 002.126 28.703c.42 5.958.705 10.14.853 12.547.14 2.406.21 4.747.21 7.021m-34.87-50.187c-1.847 5.818-4.08 11.879-6.7 18.183-2.62 6.305-6.128 13.639-10.52 22.004 1.557.708 2.76 1.701 3.61 2.979.848 1.277 1.272 2.765 1.272 4.462 0 2.695-.919 5.106-2.756 7.232-1.846 2.126-4.043 3.189-6.59 3.189-1.417 0-2.624-.247-3.62-.742-.99-.494-1.699-1.17-2.127-2.027 0 5.25 1.03 9.044 3.09 11.385 2.052 2.332 5.344 3.498 9.877 3.498 5.818 0 10.355-1.698 13.61-5.093 3.263-3.403 4.895-8.294 4.895-14.673 0-1.986-.07-4.005-.21-6.057-.148-2.06-.433-5.5-.853-10.322a808.28 808.28 0 01-1.706-17.64c-.42-5.1-.845-10.56-1.273-16.378zm119.702-10.841v1.495l2.336-11.273h30.62l-15.304 72.29a39.46 39.46 0 00-.642 3.51c-.14 1.063-.21 2.16-.21 3.288 0 3.123.708 5.427 2.126 6.91 1.417 1.492 3.613 2.238 6.588 2.238 3.684 0 7.013-1.735 9.988-5.205 2.983-3.477 5.394-8.405 7.232-14.784h8.937c-4.54 13.046-10.425 22.86-17.652 29.445-7.227 6.593-15.592 9.89-25.094 9.89-6.09 0-10.944-1.702-14.562-5.106-3.61-3.395-5.698-8.212-6.267-14.45-4.392 6.518-9.246 11.41-14.562 14.673-5.315 3.255-11.022 4.882-17.12 4.882-8.785 0-15.695-2.975-20.73-8.925-5.036-5.958-7.553-14.392-7.553-25.303 0-7.937 1.207-16.227 3.622-24.872 2.406-8.653 5.735-16.523 9.988-23.61 5.25-8.356 11.343-14.768 18.282-19.235 6.947-4.466 14.533-6.7 22.758-6.7 5.53 0 9.782.957 12.757 2.868 2.975 1.912 4.462 4.57 4.462 7.974m-1.916 10.42c0-2.126-.779-4.005-2.336-5.637-1.558-1.631-3.684-2.447-6.379-2.447-7.796 0-14.706 6.523-20.73 19.568-6.024 13.037-9.036 25.934-9.036 38.691 0 5.53.78 9.675 2.336 12.436 1.558 2.769 4.323 4.153 8.295 4.153 3.683 0 7.264-1.771 10.742-5.315 3.47-3.544 5.773-8.01 6.91-13.4l10.198-48.049zm42.946 61.87c0-1.838.144-3.928.433-6.268a86.45 86.45 0 011.273-7.553l22.745-106.518 31.472-4.253-24.45 114.813a46.495 46.495 0 00-.643 3.511c-.14 1.063-.21 2.16-.21 3.288 0 2.835.675 4.858 2.027 6.07 1.343 1.203 3.572 1.804 6.687 1.804 3.972 0 7.73-1.738 11.274-5.216 3.544-3.47 6.164-7.97 7.862-13.499h8.937c-4.54 12.897-10.635 22.68-18.282 29.346-7.656 6.659-16.445 9.988-26.367 9.988-7.088 0-12.65-2.233-16.688-6.7-4.047-4.458-6.07-10.73-6.07-18.814zm122.26-72.29v1.495l2.336-11.273h30.62l-15.304 72.29a39.489 39.489 0 00-.643 3.51 25.16 25.16 0 00-.21 3.288c0 3.123.71 5.427 2.126 6.91 1.418 1.492 3.614 2.238 6.59 2.238 3.683 0 7.012-1.735 9.987-5.205 2.983-3.477 5.394-8.405 7.231-14.784h8.938c-4.54 13.046-10.425 22.86-17.652 29.445-7.228 6.593-15.592 9.89-25.094 9.89-6.09 0-10.944-1.702-14.562-5.106-3.61-3.395-5.699-8.212-6.267-14.45-4.393 6.518-9.247 11.41-14.562 14.673-5.315 3.255-11.022 4.882-17.12 4.882-8.785 0-15.695-2.975-20.73-8.925-5.036-5.958-7.554-14.392-7.554-25.303 0-7.937 1.208-16.227 3.622-24.872 2.407-8.653 5.736-16.523 9.988-23.61 5.25-8.356 11.344-14.768 18.283-19.235 6.947-4.466 14.533-6.7 22.757-6.7 5.53 0 9.782.957 12.757 2.868 2.975 1.912 4.463 4.57 4.463 7.974m-1.916 10.42c0-2.126-.779-4.005-2.336-5.637-1.558-1.631-3.684-2.447-6.379-2.447-7.796 0-14.706 6.523-20.73 19.568-6.024 13.037-9.036 25.934-9.036 38.691 0 5.53.778 9.675 2.336 12.436 1.558 2.769 4.322 4.153 8.295 4.153 3.683 0 7.264-1.771 10.742-5.315 3.47-3.544 5.772-8.01 6.91-13.4l10.198-48.049zm96.323 63.365c0-2.555.317-5.744.952-9.568.634-3.832 1.944-9.93 3.93-18.295 1.987-8.076 3.264-13.886 3.832-17.43.57-3.543.853-6.518.853-8.924 0-3.544-.675-6.239-2.027-8.085-1.343-1.846-3.292-2.769-5.847-2.769-3.403 0-6.7 2.024-9.889 6.07-3.19 4.038-5.278 8.253-6.267 12.646l-14.673 69.1h-30.62l30.83-144.58 31.472-4.252-11.484 53.575c3.544-3.964 7.372-6.94 11.484-8.925 4.112-1.986 8.58-2.98 13.4-2.98 7.507 0 13.317 2.057 17.43 6.17 4.112 4.111 6.168 10.065 6.168 17.861 0 3.256-.392 7.116-1.174 11.583-.775 4.467-2.3 11.307-4.574 20.52-1.838 7.227-3.04 12.329-3.61 15.303-.568 2.984-.853 5.464-.853 7.442 0 2.983.71 5.217 2.127 6.7 1.417 1.492 3.543 2.237 6.378 2.237 3.544 0 6.593-1.207 9.148-3.621 2.546-2.407 5.45-7.438 8.714-15.094h8.925c-4.532 13.186-10.025 23.038-16.477 29.556-6.445 6.519-14.134 9.778-23.067 9.778-7.936 0-14.1-2.159-18.493-6.477-4.392-4.327-6.588-10.174-6.588-17.541zm63.142-83.563h7.021l6.38-29.346 31.46-4.253-7.233 33.599h12.757l-1.693 8.504h-12.757l-13.61 63.785a46.495 46.495 0 00-.643 3.511c-.14 1.063-.21 2.16-.21 3.288 0 2.835.675 4.858 2.027 6.07 1.343 1.203 3.572 1.804 6.688 1.804 3.972 0 7.73-1.738 11.273-5.216 3.544-3.47 6.164-7.97 7.862-13.499h8.937c-4.54 12.897-10.635 22.68-18.282 29.346-7.656 6.659-16.445 9.988-26.367 9.988-7.087 0-12.65-2.233-16.688-6.7-4.046-4.458-6.07-10.73-6.07-18.814 0-1.837.145-3.927.433-6.267.28-2.34.705-4.858 1.273-7.553l12.758-59.743h-7.02l1.705-8.504zm101.84-28.283c0 4.68-1.666 8.653-4.995 11.916-3.33 3.255-7.335 4.883-12.016 4.883-4.672 0-8.64-1.628-11.904-4.883-3.255-3.263-4.883-7.235-4.883-11.916 0-4.673 1.628-8.674 4.883-12.003 3.264-3.338 7.232-5.007 11.904-5.007 4.681 0 8.686 1.67 12.016 5.007 3.33 3.33 4.994 7.33 4.994 12.003m-54.218 110.35c0-1.837.144-3.927.433-6.267a86.45 86.45 0 011.273-7.553l14.463-68.247h30.607l-15.303 72.29a46.495 46.495 0 00-.643 3.51c-.14 1.063-.21 2.16-.21 3.288 0 2.835.675 4.858 2.027 6.07 1.343 1.203 3.572 1.804 6.687 1.804 3.972 0 7.73-1.738 11.274-5.216 3.544-3.47 6.164-7.97 7.862-13.499h8.937c-4.54 12.897-10.635 22.68-18.282 29.346-7.656 6.659-16.445 9.988-26.367 9.988-7.088 0-12.65-2.233-16.688-6.7-4.047-4.458-6.07-10.73-6.07-18.814zm162.657 1.496c0-2.555.317-5.744.952-9.568.643-3.832 1.957-9.93 3.943-18.295 1.978-8.076 3.251-13.886 3.82-17.43.57-3.543.853-6.518.853-8.924 0-3.544-.639-6.239-1.916-8.085-1.278-1.846-3.19-2.769-5.736-2.769-3.403 0-6.56 1.74-9.469 5.217-2.9 3.47-5.274 8.253-7.12 14.352l-14.45 68.247h-30.62l15.514-73.353c.288-.849.465-1.697.531-2.546.074-.857.112-1.78.112-2.77 0-2.834-.57-5.1-1.706-6.798-1.13-1.706-2.687-2.559-4.673-2.559-3.684 0-7.013 1.74-9.988 5.217-2.983 3.47-5.394 8.323-7.23 14.562l-14.464 68.247h-30.62l22.548-106.308h30.607l-2.337 11.05c3.544-4.103 7.442-7.148 11.694-9.134 4.253-1.986 9.003-2.98 14.253-2.98 6.23 0 11.154 1.525 14.772 4.574 3.618 3.05 5.991 7.62 7.12 13.71 3.972-6.09 8.37-10.628 13.19-13.61 4.812-2.976 10.268-4.463 16.366-4.463 7.516 0 13.326 2.056 17.43 6.168 4.112 4.112 6.168 10.066 6.168 17.862 0 3.256-.387 7.116-1.162 11.583-.783 4.467-2.307 11.307-4.573 20.52-1.846 7.227-3.054 12.329-3.622 15.303-.56 2.984-.84 5.464-.84 7.442 0 2.983.708 5.217 2.125 6.7 1.418 1.492 3.544 2.237 6.38 2.237 3.542 0 6.587-1.207 9.134-3.621 2.555-2.407 5.46-7.438 8.715-15.094h8.937c-4.54 13.186-10.033 23.038-16.478 29.556-6.452 6.519-14.14 9.778-23.066 9.778-7.945 0-14.113-2.159-18.505-6.477-4.393-4.327-6.589-10.174-6.589-17.541zm136.283-65.07c0 11.767-4.817 22.011-14.45 30.73-9.643 8.719-21.127 13.433-34.452 14.141-.14 2.407-.243 4.212-.31 5.415a51.28 51.28 0 00-.11 3.09c0 6.519 1.1 11.125 3.3 13.82 2.192 2.687 6.193 4.03 12.003 4.03 6.667 0 12.798-1.52 18.394-4.561 5.604-3.05 12.02-8.686 19.247-16.91h7.23c-8.224 13.325-17.157 23.214-26.799 29.667-9.633 6.444-20.19 9.666-31.67 9.666-10.919 0-19.176-2.835-24.772-8.504-5.604-5.67-8.406-14.105-8.406-25.304 0-8.076 1.278-16.651 3.832-25.724 2.555-9.074 5.958-17.154 10.21-24.241 5.242-8.505 11.513-14.916 18.815-19.235 7.301-4.326 15.485-6.49 24.55-6.49 7.796 0 13.643 1.665 17.54 4.995 3.9 3.337 5.848 8.476 5.848 15.414m-21.682-9.135c-4.82 0-9.675 4.286-14.562 12.856-4.895 8.579-8.546 18.893-10.953 30.94 8.225-.568 15.42-4.359 21.584-11.372 6.164-7.021 9.246-14.924 9.246-23.709 0-2.975-.424-5.171-1.273-6.589-.849-1.417-2.196-2.126-4.042-2.126zm88.025 61.45c0 1.697-.07 3.184-.21 4.462a28.761 28.761 0 01-.643 3.609c2.835-1.698 5.6-3.47 8.295-5.315 2.695-1.838 5.031-3.61 7.01-5.316h8.936a114.803 114.803 0 01-14.562 14.142c-5.315 4.326-11.306 8.471-17.973 12.435-3.824 4.113-8.715 7.269-14.673 9.47-5.95 2.191-12.184 3.287-18.703 3.287-9.502 0-17.05-2.587-22.646-7.763-5.596-5.167-8.394-11.648-8.394-19.444 0-4.4 1.063-8.406 3.19-12.016 2.126-3.617 4.816-6.205 8.072-7.763 4.82-8.644 9.32-17.895 13.498-27.751 4.187-9.848 8.406-21.575 12.658-35.18l31.46-4.253c.43 10.63.927 20.339 1.496 29.124a1673.36 1673.36 0 002.126 28.703c.42 5.958.705 10.14.853 12.547.14 2.406.21 4.747.21 7.021m-34.87-50.187c-1.847 5.818-4.08 11.879-6.7 18.183-2.62 6.305-6.128 13.639-10.52 22.004 1.557.708 2.76 1.701 3.61 2.979.848 1.277 1.272 2.765 1.272 4.462 0 2.695-.919 5.106-2.757 7.232-1.846 2.126-4.042 3.189-6.588 3.189-1.418 0-2.625-.247-3.622-.742-.99-.494-1.698-1.17-2.126-2.027 0 5.25 1.03 9.044 3.09 11.385 2.052 2.332 5.344 3.498 9.877 3.498 5.818 0 10.355-1.698 13.61-5.093 3.263-3.403 4.895-8.294 4.895-14.673 0-1.986-.07-4.005-.21-6.057-.149-2.06-.433-5.5-.853-10.322a808.987 808.987 0 01-1.706-17.64c-.42-5.1-.845-10.56-1.273-16.378z" style="white-space:pre" fill="#0f4c81" color="#0f4c81" stroke="#f1eee6" stroke-width="12" paint-order="stroke"/>
</svg>