<svg xmlns="http://www.w3.org/2000/svg" xmlns:xlink="http://www.w3.org/1999/xlink" width="177.953" height="17.945" viewBox="-.239 -.241 133.465 13.459">
  <defs/>
  <defs>
    <path id="j" d="M7.878-2.75c.204 0 .419 0 .419-.239s-.215-.239-.419-.239H1.411c-.204 0-.419 0-.419.24s.215.238.419.238h6.467z"/>
    <path id="f" d="M3.885 2.905c0-.036 0-.06-.203-.263-1.195-1.207-1.865-3.18-1.865-5.619 0-2.32.562-4.316 1.949-5.726.12-.108.12-.132.12-.168 0-.071-.06-.095-.108-.095-.156 0-1.136.86-1.722 2.032-.61 1.207-.884 2.487-.884 3.957 0 1.064.167 2.487.789 3.766.705 1.435 1.685 2.212 1.817 2.212.048 0 .107-.024.107-.096z"/>
    <path id="l" d="M3.371-2.977c0-.908-.12-2.39-.789-3.778C1.877-8.189.897-8.966.765-8.966c-.048 0-.107.024-.107.095 0 .036 0 .06.203.263 1.195 1.208 1.865 3.18 1.865 5.62 0 2.319-.562 4.315-1.949 5.726-.12.107-.12.131-.12.167 0 .072.06.096.108.096C.921 3 1.901 2.14 2.487.968c.61-1.22.884-2.51.884-3.945z"/>
    <path id="g" d="M4.77-2.762h3.3c.167 0 .382 0 .382-.215 0-.227-.203-.227-.382-.227h-3.3v-3.3c0-.167 0-.382-.215-.382-.227 0-.227.203-.227.382v3.3h-3.3c-.167 0-.382 0-.382.215 0 .227.203.227.382.227h3.3v3.3c0 .167 0 .383.215.383.227 0 .227-.204.227-.383v-3.3z"/>
    <path id="k" d="M1.877-.885c-.108.419-.132.538-.968.538-.228 0-.347 0-.347.215C.562 0 .634 0 .872 0h3.79c2.415 0 4.77-2.499 4.77-5.165 0-1.721-1.028-3-2.737-3H2.857c-.227 0-.334 0-.334.227 0 .12.107.12.286.12.73 0 .73.095.73.226 0 .024 0 .096-.048.275L1.877-.885zm2.522-6.467c.108-.443.156-.467.622-.467h1.315c1.124 0 2.152.61 2.152 2.26 0 .598-.239 2.678-1.399 3.993-.334.394-1.243 1.22-2.618 1.22H3.108c-.167 0-.19 0-.263-.013-.131-.012-.143-.036-.143-.131 0-.084.024-.156.048-.263l1.65-6.6z"/>
    <path id="i" d="M4.388-7.245c.107-.454.143-.574 1.195-.574.323 0 .407 0 .407-.227 0-.12-.132-.12-.18-.12-.239 0-.514.025-.753.025H3.455c-.227 0-.49-.024-.717-.024-.096 0-.227 0-.227.227 0 .12.107.12.287.12.729 0 .729.095.729.226 0 .024 0 .096-.048.275L1.865-.885c-.108.419-.131.538-.968.538-.228 0-.347 0-.347.215C.55 0 .622 0 .86 0h5.357c.263 0 .275-.012.358-.227l.92-2.547a.608.608 0 00.049-.167.12.12 0 00-.12-.12c-.012 0-.072 0-.095.048-.024.012-.024.036-.12.263-.383 1.052-.92 2.403-2.941 2.403H3.12c-.167 0-.191 0-.263-.012-.131-.012-.143-.036-.143-.131 0-.084.024-.156.048-.263l1.626-6.492z"/>
    <path id="a" d="M3.599-1.423c-.06.204-.06.227-.228.455-.263.334-.789.848-1.35.848-.49 0-.766-.442-.766-1.147 0-.658.37-1.997.598-2.499.407-.837.968-1.267 1.435-1.267.789 0 .944.98.944 1.076 0 .012-.036.167-.048.191L3.6-1.423zm.765-3.06c-.132-.311-.455-.79-1.076-.79-1.351 0-2.81 1.746-2.81 3.516C.478-.574 1.172.12 1.985.12c.657 0 1.219-.515 1.554-.909.12.705.681.909 1.04.909s.645-.216.86-.646c.192-.407.36-1.136.36-1.184 0-.06-.049-.107-.12-.107-.108 0-.12.06-.168.239-.179.705-.406 1.458-.896 1.458-.347 0-.37-.31-.37-.55 0-.274.035-.406.143-.872.083-.3.143-.562.239-.909.442-1.793.55-2.223.55-2.295a.299.299 0 00-.311-.3c-.383 0-.478.42-.502.563z"/>
    <path id="c" d="M4.674-4.495c-.227 0-.334 0-.502.143a.635.635 0 00-.203.43c0 .24.18.383.407.383.287 0 .61-.239.61-.717 0-.574-.55-1.016-1.376-1.016-1.566 0-3.132 1.71-3.132 3.407C.478-.825 1.124.12 2.343.12c1.626 0 2.654-1.268 2.654-1.423 0-.072-.071-.132-.12-.132-.035 0-.047.012-.155.12C3.957-.3 2.822-.12 2.367-.12c-.825 0-1.088-.717-1.088-1.315 0-.418.203-1.578.634-2.39.31-.563.956-1.208 1.71-1.208.155 0 .812.024 1.051.538z"/>
    <path id="h" d="M2.463-3.503c.024-.072.323-.67.765-1.052.31-.287.717-.478 1.183-.478.479 0 .646.359.646.837 0 .681-.49 2.044-.73 2.69-.107.287-.167.442-.167.657 0 .538.371.969.945.969 1.112 0 1.53-1.758 1.53-1.83 0-.06-.048-.107-.12-.107-.107 0-.119.036-.179.239-.275.98-.729 1.458-1.195 1.458-.12 0-.311-.012-.311-.394 0-.299.131-.658.203-.825.24-.658.741-1.996.741-2.678 0-.717-.418-1.255-1.327-1.255-1.064 0-1.626.753-1.84 1.052-.037-.682-.527-1.052-1.053-1.052-.382 0-.645.227-.849.633C.49-4.209.323-3.49.323-3.443s.048.108.131.108c.096 0 .108-.012.18-.287.19-.73.406-1.411.884-1.411.275 0 .37.191.37.55 0 .263-.119.73-.202 1.1l-.335 1.29c-.048.228-.18.766-.24.981-.083.311-.214.873-.214.933 0 .167.131.299.31.299.144 0 .311-.072.407-.252.024-.06.131-.478.191-.717l.263-1.076.395-1.578z"/>
    <path id="d" d="M5.452-3.288c0-1.135-.742-1.984-1.83-1.984C2.044-5.272.49-3.551.49-1.865.49-.729 1.231.12 2.32.12c1.59 0 3.132-1.722 3.132-3.408zM2.332-.12c-.598 0-1.04-.478-1.04-1.315 0-.55.286-1.769.62-2.367.539-.92 1.208-1.231 1.698-1.231.586 0 1.04.478 1.04 1.315 0 .478-.25 1.757-.705 2.487-.49.8-1.147 1.111-1.614 1.111z"/>
    <path id="b" d="M4.65-4.89c-.37.072-.561.335-.561.598 0 .287.227.383.394.383.335 0 .61-.287.61-.646 0-.382-.37-.717-.968-.717-.479 0-1.029.215-1.53.944-.084-.633-.563-.944-1.04-.944-.467 0-.706.358-.85.621a6.16 6.16 0 00-.382 1.208c0 .048.048.108.131.108.096 0 .108-.012.18-.287.179-.718.406-1.411.884-1.411.287 0 .37.203.37.55 0 .263-.119.73-.202 1.1l-.335 1.29c-.048.228-.18.766-.24.981-.083.311-.214.873-.214.933 0 .167.131.299.31.299a.461.461 0 00.43-.323c.037-.096.48-1.901.55-2.176.06-.263.132-.514.192-.777.048-.168.096-.359.132-.514.035-.108.358-.694.657-.957.144-.131.454-.406.945-.406.19 0 .382.036.538.143z"/>
    <path id="e" d="M2.403-4.806h1.1c.227 0 .347 0 .347-.215 0-.132-.072-.132-.311-.132H2.487l.442-1.745c.048-.168.048-.191.048-.275 0-.191-.156-.299-.311-.299-.096 0-.37.036-.466.418l-.467 1.901H.61c-.24 0-.347 0-.347.227 0 .12.084.12.31.12h1.065L.848-1.65c-.095.419-.13.538-.13.694C.717-.395 1.111.12 1.78.12c1.208 0 1.853-1.746 1.853-1.83 0-.071-.047-.107-.12-.107-.023 0-.07 0-.095.048-.012.012-.024.024-.107.215C3.06-.956 2.51-.12 1.817-.12c-.358 0-.382-.298-.382-.561 0-.012 0-.24.035-.383l.933-3.742z"/>
  </defs>
  <g transform="matrix(1.13 0 0 1.13 -63.986 -64.448)">
    <use x="56.413" y="65.753" xlink:href="#a"/>
    <use x="62.535" y="65.753" xlink:href="#b"/>
    <use x="68.116" y="65.753" xlink:href="#c"/>
    <use x="73.135" y="65.753" xlink:href="#c"/>
    <use x="78.154" y="65.753" xlink:href="#d"/>
    <use x="83.761" y="65.753" xlink:href="#e"/>
    <use x="87.972" y="65.753" xlink:href="#f"/>
    <use x="92.507" y="65.753" xlink:href="#e"/>
    <use x="99.376" y="65.753" xlink:href="#g"/>
    <use x="111.103" y="65.753" xlink:href="#e"/>
    <use x="115.314" y="65.753" xlink:href="#a"/>
    <use x="121.436" y="65.753" xlink:href="#h"/>
    <use x="128.398" y="65.753" xlink:href="#f"/>
    <use x="132.933" y="65.753" xlink:href="#i"/>
    <use x="143.524" y="65.753" xlink:href="#j"/>
    <use x="155.445" y="65.753" xlink:href="#k"/>
    <use x="165.453" y="65.753" xlink:href="#l"/>
    <use x="169.988" y="65.753" xlink:href="#l"/>
  </g>
</svg>